<?xml version="1.0" encoding="UTF-8" standalone="no"?>
<svg
   viewBox="0 0 384 512"
   fill="#22292b"
   version="1.1"
   id="svg44"
   sodipodi:docname="ghost-everblush.svg"
   inkscape:version="1.2.1 (9c6d41e410, 2022-07-14)"
   xmlns:inkscape="http://www.inkscape.org/namespaces/inkscape"
   xmlns:sodipodi="http://sodipodi.sourceforge.net/DTD/sodipodi-0.dtd"
   xmlns="http://www.w3.org/2000/svg"
   xmlns:svg="http://www.w3.org/2000/svg">
  <defs
     id="defs48" />
  <sodipodi:namedview
     id="namedview46"
     pagecolor="#ffffff"
     bordercolor="#000000"
     borderopacity="0.25"
     inkscape:showpageshadow="2"
     inkscape:pageopacity="0.0"
     inkscape:pagecheckerboard="0"
     inkscape:deskcolor="#d1d1d1"
     showgrid="false"
     inkscape:zoom="1.0136719"
     inkscape:cx="-4.4393064"
     inkscape:cy="256.49326"
     inkscape:window-width="1360"
     inkscape:window-height="693"
     inkscape:window-x="0"
     inkscape:window-y="0"
     inkscape:window-maximized="1"
     inkscape:current-layer="svg44" />
  <!--! Font Awesome Pro 6.1.0 by @fontawesome - https://fontawesome.com License - https://fontawesome.com/license (Commercial License) Copyright 2022 Fonticons, Inc. -->
  <path
     d="M186.1 .1032c-105.1 3.126-186.1 94.75-186.1 199.9v264c0 14.25 17.3 21.38 27.3 11.25l24.95-18.5c6.625-5.001 16-4.001 21.5 2.25l43 48.31c6.25 6.251 16.37 6.251 22.62 0l40.62-45.81c6.375-7.251 17.62-7.251 24 0l40.63 45.81c6.25 6.251 16.38 6.251 22.62 0l43-48.31c5.5-6.251 14.88-7.251 21.5-2.25l24.95 18.5c10 10.13 27.3 3.002 27.3-11.25V192C384 83.98 294.9-3.147 186.1 .1032zM128 224c-17.62 0-31.1-14.38-31.1-32.01s14.38-32.01 31.1-32.01s32 14.38 32 32.01S145.6 224 128 224zM256 224c-17.62 0-32-14.38-32-32.01s14.38-32.01 32-32.01c17.62 0 32 14.38 32 32.01S273.6 224 256 224z"
     id="path42" />
  <path
     style="fill:#6cbfbf;stroke-width:0.986513;fill-opacity:1"
     d="m 121.71228,509.94164 c -1.69485,-0.83609 -13.39017,-13.06622 -25.989589,-27.17807 -12.59942,-14.11185 -24.308675,-26.51196 -26.020567,-27.55579 -3.381667,-2.06201 -9.81803,-2.49512 -13.917437,-0.93653 -1.401399,0.53282 -9.525446,6.15224 -18.053438,12.48762 -8.608214,6.39498 -16.959748,11.84687 -18.774825,12.25624 -6.238267,1.40696 -13.3856319,-2.12871 -16.7564808,-8.28912 -1.59548823,-2.91583 -1.70668694,-12.34265 -1.70668694,-144.6836 0,-132.98566 0.11094182,-142.28195 1.83070634,-153.4027 C 9.6672989,125.15445 30.020714,85.282932 63.269837,53.249162 120.24428,-1.6426957 202.24418,-14.872228 273.97181,19.255357 c 19.75835,9.400904 34.80629,19.877273 50.9479,35.46989 33.74864,32.600824 53.52263,74.257183 57.84637,121.860493 1.35551,14.92372 1.32876,286.79262 -0.0287,291.67992 -1.20841,4.35073 -6.45389,9.21794 -11.40876,10.58605 -5.41214,1.49437 -9.07057,-0.24383 -24.25857,-11.52573 -17.53262,-13.02355 -19.23661,-14.01537 -24.08663,-14.01979 -8.16683,-0.008 -9.20049,0.86556 -34.13696,28.83139 -23.78619,26.67581 -26.79843,29.36916 -32.84645,29.36916 -6.05226,0 -9.09769,-2.69642 -31.55659,-27.94032 -14.21405,-15.97664 -23.5286,-25.6479 -25.50589,-26.48266 -4.45555,-1.88101 -11.66601,-1.53655 -15.22695,0.72741 -1.64682,1.04702 -12.39814,12.558 -23.89182,25.57997 -13.50144,15.29669 -22.31778,24.46189 -24.91025,25.89595 -4.668,2.58217 -8.86658,2.79042 -13.19622,0.65455 z m 20.67433,-288.83917 c 6.55123,-3.20521 11.84418,-8.84191 15.28975,-16.28273 2.07473,-4.48045 2.55987,-6.98769 2.52851,-13.06755 -0.0466,-9.02224 -2.87784,-15.76087 -9.38237,-22.33042 -12.60105,-12.72702 -32.36048,-13.00016 -44.62404,-0.61685 -11.198039,11.30738 -12.780126,29.97427 -3.61298,42.62914 8.89652,12.28129 25.97902,16.43094 39.80113,9.66841 z m 127.42457,0.31083 c 6.93886,-3.28576 13.68674,-10.51133 16.28748,-17.44045 2.86731,-7.63934 2.49936,-19.32743 -0.82164,-26.09958 -3.07849,-6.27762 -9.40989,-12.41542 -15.9591,-15.47112 -7.7735,-3.62692 -18.89888,-3.60354 -26.78912,0.0562 -11.31827,5.24985 -17.8244,15.00216 -18.42982,27.62519 -0.76289,15.90622 6.9286,27.26099 22.37543,33.03232 5.4515,2.03681 17.25905,1.17535 23.33677,-1.70263 z"
     id="path223" />
  <path
     style="fill:#6cbfbf;fill-opacity:1;stroke-width:0.986513"
     d="m 117.65929,505.45517 c -2.9454,-2.91133 -14.6112,-15.43415 -25.92401,-27.8285 -11.312806,-12.39435 -21.627451,-22.9377 -22.921433,-23.42967 -3.317084,-1.26115 -11.810732,-1.11188 -14.373884,0.25261 -1.18514,0.63092 -8.147863,5.42641 -15.472718,10.65667 -16.596656,11.85071 -19.873184,13.84555 -22.741393,13.84555 -3.403943,0 -10.0356726,-3.60393 -12.2798019,-6.67329 C 2.0324114,469.66119 1.9519765,467.44205 1.2737195,398.55106 0.88910132,359.48516 0.94782703,292.89557 1.4042211,250.57418 L 2.2340282,173.6262 4.8618028,161.2948 C 21.211177,84.571785 75.366772,25.672006 146.81079,6.9106746 c 14.15354,-3.7167461 28.5334,-5.4309058 45.55915,-5.4309058 50.8396,0 97.44594,19.3318312 133.88396,55.5336752 26.96345,26.788688 44.69798,59.511916 52.64269,97.134706 1.72072,8.14856 2.72008,17.14695 3.36844,30.32969 1.049,21.32858 1.3292,245.31891 0.33683,269.24745 l -0.65169,15.71374 -3.39942,3.76274 c -1.97349,2.18442 -5.03079,4.25153 -7.2886,4.92798 -4.79699,1.43722 -8.31084,-0.0746 -20.06369,-8.63219 -20.33214,-14.80447 -22.82477,-16.19506 -29.02961,-16.19506 -4.86051,0 -6.2967,0.4479 -9.55536,2.97996 -2.10928,1.63898 -4.9449,4.23448 -6.30135,5.76779 -17.1014,19.33104 -39.59756,43.35244 -42.71389,45.6099 -4.90768,3.5551 -9.90089,3.77095 -14.56246,0.62952 -1.82046,-1.22681 -9.53463,-9.10658 -17.14258,-17.5106 -7.60797,-8.40402 -18.14494,-19.71042 -23.41549,-25.12535 l -9.58283,-9.84531 -6.39292,-0.0198 c -4.95481,-0.0154 -7.02025,0.44336 -9.18155,2.03918 -1.53374,1.13244 -8.99437,8.90123 -16.57917,17.26397 -7.58479,8.36273 -18.07087,19.60301 -23.3024,24.97838 -9.46747,9.7278 -9.53733,9.77552 -14.96808,10.22589 l -5.45621,0.45246 -5.35527,-5.29331 z m 24.68959,-283.84913 c 6.53538,-3.38166 11.67795,-8.59558 14.96408,-15.17169 2.55393,-5.11089 2.99533,-7.10804 2.99533,-13.55298 0,-10.26455 -2.0254,-15.66744 -8.49146,-22.65155 -7.31147,-7.89726 -13.06376,-10.37632 -24.06346,-10.37059 -9.86646,0.005 -14.97873,2.02963 -21.54665,8.53254 -11.575126,11.46056 -13.285084,30.91299 -3.81473,43.39625 3.53393,4.65823 10.99463,10.12822 15.85605,11.62525 5.51335,1.69779 19.32922,0.66179 24.10084,-1.80723 z m 127.65601,0.13094 c 5.88222,-2.64106 12.53573,-9.26881 15.64218,-15.58159 2.06166,-4.18964 2.40836,-6.27665 2.37203,-14.2787 -0.0294,-6.47649 -0.54454,-10.50834 -1.66734,-13.05042 -2.3152,-5.24171 -10.23058,-13.33697 -16.0278,-16.39205 -4.34506,-2.28981 -6.10089,-2.61029 -14.32396,-2.61445 -8.90201,-0.005 -9.69335,0.17226 -15.7842,3.52578 -11.47817,6.31969 -16.3044,15.24758 -16.24635,30.05364 0.026,6.63557 0.48007,8.85251 2.77304,13.53914 3.1205,6.37808 8.75377,11.73224 15.93959,15.14983 4.27639,2.03386 6.11367,2.3049 13.81118,2.03746 6.38945,-0.22198 10.1775,-0.89166 13.51163,-2.38864 z"
     id="path1040" />
  <path
     style="fill:#6cbfbf;fill-opacity:1;stroke-width:0.986513"
     d="m 121.51694,509.28797 c -1.69286,-1.16242 -39.443635,-41.6982 -45.32006,-48.66348 -4.413528,-5.23132 -8.634171,-7.32199 -14.781611,-7.32199 -5.18238,0 -5.93269,0.35092 -16.161015,7.55841 -20.36996,14.3539 -26.322521,18.09092 -28.816338,18.09092 -3.463782,0 -10.5615005,-3.59931 -12.2540952,-6.21415 -0.772987,-1.19416 -1.6714046,-3.28103 -1.9964837,-4.63749 C 1.2692725,464.2694 0.69350035,279.15946 1.4263536,223.44509 2.078476,173.8682 2.0948712,173.5663 4.801664,161.2948 19.15131,96.239289 58.432744,45.145524 114.43545,18.693003 140.04795,6.5951023 163.14724,1.5306757 192.8632,1.4980353 242.89572,1.443079 289.30792,20.630071 325.59747,56.370922 c 22.01413,21.681269 37.90687,47.102088 47.30685,75.668388 6.03946,18.35378 8.36391,31.44314 9.39978,52.93179 1.02073,21.17449 1.27306,246.88152 0.30111,269.33715 l -0.6549,15.13062 -3.39949,3.76283 c -1.97355,2.18448 -5.03083,4.25159 -7.28867,4.92805 -5.01409,1.50226 -8.13982,0.0322 -23.51649,-11.05999 -18.37487,-13.255 -19.33278,-13.76726 -25.74456,-13.76726 -5.19219,0 -6.00883,0.32469 -10.54534,4.19268 -2.70453,2.30598 -13.84547,14.0532 -24.75766,26.10494 -10.91218,12.05174 -21.49853,23.03902 -23.5252,24.41618 -4.66957,3.17306 -9.70276,3.26087 -14.17923,0.24738 -1.84362,-1.24111 -10.98334,-10.644 -20.31048,-20.89534 -26.63852,-29.27806 -28.54665,-31.03886 -34.38525,-31.73036 -8.08526,-0.95758 -10.49876,0.70265 -26.2108,18.03014 -7.80107,8.60315 -18.67912,20.26215 -24.17345,25.90888 -9.98806,10.26512 -9.99055,10.26684 -15.29465,10.60588 -3.17422,0.2029 -6.0268,-0.15655 -7.1021,-0.89491 z m 21.36213,-288.1851 c 6.31988,-3.09204 11.6756,-8.74509 15.07151,-15.90826 2.8652,-6.04371 3.22133,-17.33744 0.77327,-24.5221 -2.15596,-6.32739 -9.97217,-14.66363 -16.97178,-18.10093 -4.85415,-2.38374 -6.74744,-2.7488 -13.9987,-2.69924 -10.28398,0.0703 -15.53306,2.29283 -22.16824,9.38638 -14.202641,15.18377 -11.940503,38.72752 4.80362,49.9948 6.4829,4.36241 9.6101,5.16059 18.95117,4.83702 6.34973,-0.21995 9.14114,-0.83593 13.53915,-2.98767 z m 126.93959,0.71071 c 5.64899,-2.53058 12.93539,-9.78663 15.92585,-15.85947 1.93904,-3.9377 2.31715,-6.23486 2.31715,-14.07742 0,-11.2927 -1.96104,-16.15563 -9.27315,-22.99525 -7.96902,-7.45408 -11.91087,-9.01313 -22.78851,-9.01313 -7.93018,0 -10.05477,0.35755 -13.81118,2.32429 -7.85435,4.11231 -11.61914,7.78708 -14.98746,14.62911 -2.94586,5.98389 -3.2115,7.29394 -3.13931,15.48195 0.0846,9.59296 1.39899,13.94491 6.05579,20.05026 2.97585,3.90155 9.55959,8.63666 14.79632,10.64171 5.33736,2.04358 19.1695,1.38707 24.9045,-1.18205 z"
     id="path1042" />
</svg>
